<svg xmlns="http://www.w3.org/2000/svg" width="246.807" height="245.999" viewBox="0 0 246.807 245.999">
  <g id="Group_5342" data-name="Group 5342" transform="translate(-35.374 -4.612)">
    <g id="Group_5334" data-name="Group 5334" transform="translate(35.374 4.612)">
      <g id="Group_5333" data-name="Group 5333" transform="translate(0 0)">
        <rect id="Rectangle_3" data-name="Rectangle 3" width="202.481" height="201.819" transform="translate(0.234 0.098)" fill="rgba(51,51,51,0)"/>
        <g id="Group_5332" data-name="Group 5332">
          <g id="Group_5331" data-name="Group 5331">
            <path id="Path_4975" data-name="Path 4975" d="M91.573,31.183c4.59-8.943,8.133-18.325,11.811-27.571A4.725,4.725,0,0,1,109.357.237,119.869,119.869,0,0,1,169.6,26.492,121.489,121.489,0,0,1,213.3,103.7a119.4,119.4,0,0,1-25.31,95.5c-3.375,4.252-3.375,4.151-7.829,1.249-7.222-4.792-14.477-9.517-22.577-14.916a77.625,77.625,0,0,0,4.893,12.621c2.092,5.366,4.387,10.63,6.749,15.827a3.375,3.375,0,0,1-1.147,4.961A122.681,122.681,0,0,1,32.516,230.66a140.8,140.8,0,0,1-17.245-11.373,3.881,3.881,0,0,1-1.282-5.568c3.982-9.28,8.4-18.426,11.778-28.01.607-.844,1.62-1.451,1.552-2.666l24.635-57.707q18.9-44.411,37.931-88.788c.371-.911.371-2.464,1.89-2.329s1.181,1.417,1.552,2.261l10.124,23.285L154.51,179.973c.776,1.789,1.147,4.286,3.746,1.417a80.993,80.993,0,0,0,22.239-48.6c2.8-33.747-9.28-61.521-36.143-82.309a82.039,82.039,0,0,0-52.78-17.143Zm0,180.377a69.685,69.685,0,0,0,9.922-.675,87.742,87.742,0,0,0,50.654-23.319c3.375-3.375,3.375-3.375-.3-5.939-19.168-12.723-38.4-25.378-57.37-38.168a4.353,4.353,0,0,0-5.6,0Q59.986,162.694,31,181.761c-2.666,1.721-2.97,2.767-.574,5.028A89.294,89.294,0,0,0,91.4,211.56Z" transform="translate(31.837 0.165)" fill="#23c0a9"/>
            <path id="Path_4976" data-name="Path 4976" d="M59.053,183.18c0,1.215-.945,1.822-1.552,2.666-8.1,4.59-15.692,10.124-23.387,15.254-2.868,1.957-4.455,1.654-6.749-1.012A119.43,119.43,0,0,1,2.392,147.1,123.041,123.041,0,0,1,21.256,53.389a117,117,0,0,1,73.4-50.958c3.813-.945,7.762-1.654,11.778-2.362,2.43-.4,3.375.439,4.387,2.6,3.645,8.909,7.458,17.65,11.271,26.424a17.513,17.513,0,0,0,1.249,2.194v2.194a64.861,64.861,0,0,0-22.205,2.362c-39.011,9.922-63.849,43.533-66.718,81.769a83.051,83.051,0,0,0,13.735,53.084,38.3,38.3,0,0,0,10.9,12.486Z" transform="translate(0.069 0.029)" fill="#fb7256"/>
          </g>
        </g>
      </g>
    </g>
  </g>
</svg>
